<svg width="16" height="16" viewBox="0 0 16 16" fill="none" xmlns="http://www.w3.org/2000/svg">
<g id="agriculture">
<mask id="mask0_179_42" style="mask-type:alpha" maskUnits="userSpaceOnUse" x="0" y="0" width="16" height="16">
<rect id="Bounding box" width="16" height="16" fill="#D9D9D9"/>
</mask>
<g mask="url(#mask0_179_42)">
<path id="agriculture_2" d="M2.66663 6C2.47774 6 2.3194 5.93611 2.19163 5.80834C2.06385 5.68056 1.99996 5.52222 1.99996 5.33334C1.99996 5.14445 2.06385 4.98611 2.19163 4.85834C2.3194 4.73056 2.47774 4.66667 2.66663 4.66667H4.66663C5.03329 4.66667 5.34718 4.79722 5.60829 5.05834C5.8694 5.31945 5.99996 5.63334 5.99996 6H2.66663ZM3.99996 12C4.55552 12 5.02774 11.8056 5.41663 11.4167C5.80551 11.0278 5.99996 10.5556 5.99996 10C5.99996 9.44445 5.80551 8.97222 5.41663 8.58334C5.02774 8.19445 4.55552 8 3.99996 8C3.4444 8 2.97218 8.19445 2.58329 8.58334C2.1944 8.97222 1.99996 9.44445 1.99996 10C1.99996 10.5556 2.1944 11.0278 2.58329 11.4167C2.97218 11.8056 3.4444 12 3.99996 12ZM13 12C13.2777 12 13.5138 11.9028 13.7083 11.7083C13.9027 11.5139 14 11.2778 14 11C14 10.7222 13.9027 10.4861 13.7083 10.2917C13.5138 10.0972 13.2777 10 13 10C12.7222 10 12.4861 10.0972 12.2916 10.2917C12.0972 10.4861 12 10.7222 12 11C12 11.2778 12.0972 11.5139 12.2916 11.7083C12.4861 11.9028 12.7222 12 13 12ZM3.99996 11C3.72218 11 3.48607 10.9028 3.29163 10.7083C3.09718 10.5139 2.99996 10.2778 2.99996 10C2.99996 9.72222 3.09718 9.48611 3.29163 9.29167C3.48607 9.09722 3.72218 9 3.99996 9C4.27774 9 4.51385 9.09722 4.70829 9.29167C4.90274 9.48611 4.99996 9.72222 4.99996 10C4.99996 10.2778 4.90274 10.5139 4.70829 10.7083C4.51385 10.9028 4.27774 11 3.99996 11ZM13.3333 8.68334C13.6222 8.73889 13.8611 8.81389 14.05 8.90834C14.2388 9.00278 14.4444 9.15556 14.6666 9.36667V5.33334C14.6666 4.96667 14.5361 4.65278 14.275 4.39167C14.0138 4.13056 13.7 4 13.3333 4H9.13329L8.43329 3.26667L9.36663 2.33334L8.89996 1.86667L6.53329 4.23334L7.03329 4.7L7.96663 3.76667L8.66663 4.46667V6C8.66663 6.36667 8.53607 6.68056 8.27496 6.94167C8.01385 7.20278 7.69996 7.33334 7.33329 7.33334H5.98329C6.23885 7.52222 6.4444 7.71667 6.59996 7.91667C6.75552 8.11667 6.91107 8.36667 7.06663 8.66667H7.33329C8.06663 8.66667 8.6944 8.40556 9.21663 7.88334C9.73885 7.36111 9.99996 6.73334 9.99996 6V5.33334H13.3333V8.68334ZM10.6833 10.6667C10.75 10.3667 10.8305 10.125 10.925 9.94167C11.0194 9.75834 11.1666 9.55556 11.3666 9.33334H7.26663C7.31107 9.58889 7.33329 9.81111 7.33329 10C7.33329 10.1889 7.31107 10.4111 7.26663 10.6667H10.6833ZM13 13.3333C12.3555 13.3333 11.8055 13.1056 11.35 12.65C10.8944 12.1944 10.6666 11.6444 10.6666 11C10.6666 10.3556 10.8944 9.80556 11.35 9.35C11.8055 8.89445 12.3555 8.66667 13 8.66667C13.6444 8.66667 14.1944 8.89445 14.65 9.35C15.1055 9.80556 15.3333 10.3556 15.3333 11C15.3333 11.6444 15.1055 12.1944 14.65 12.65C14.1944 13.1056 13.6444 13.3333 13 13.3333ZM3.99996 13.3333C3.07774 13.3333 2.29163 13.0083 1.64163 12.3583C0.991626 11.7083 0.666626 10.9222 0.666626 10C0.666626 9.07778 0.991626 8.29167 1.64163 7.64167C2.29163 6.99167 3.07774 6.66667 3.99996 6.66667C4.92218 6.66667 5.70829 6.99167 6.35829 7.64167C7.00829 8.29167 7.33329 9.07778 7.33329 10C7.33329 10.9222 7.00829 11.7083 6.35829 12.3583C5.70829 13.0083 4.92218 13.3333 3.99996 13.3333Z" fill="#1C1B1F"/>
</g>
</g>
</svg>
