<svg width="16" height="16" viewBox="0 0 16 16" fill="none" xmlns="http://www.w3.org/2000/svg">
<g id="humidity_low">
<mask id="mask0_179_151" style="mask-type:alpha" maskUnits="userSpaceOnUse" x="0" y="0" width="16" height="16">
<rect id="Bounding box" width="16" height="16" fill="#D9D9D9"/>
</mask>
<g mask="url(#mask0_179_151)">
<path id="humidity_low_2" d="M7.99996 14.3333C6.52218 14.3333 5.26385 13.8222 4.22496 12.8C3.18607 11.7777 2.66663 10.5333 2.66663 9.06663C2.66663 8.36663 2.80274 7.69718 3.07496 7.05829C3.34718 6.4194 3.73329 5.85552 4.23329 5.36663L7.99996 1.66663L11.7666 5.36663C12.2666 5.85552 12.6527 6.4194 12.925 7.05829C13.1972 7.69718 13.3333 8.36663 13.3333 9.06663C13.3333 10.5333 12.8138 11.7777 11.775 12.8C10.7361 13.8222 9.47774 14.3333 7.99996 14.3333ZM7.99996 13C9.11107 13 10.0555 12.6194 10.8333 11.8583C11.6111 11.0972 12 10.1666 12 9.06663C12 8.5444 11.9 8.04718 11.7 7.57496C11.5 7.10274 11.2111 6.68885 10.8333 6.33329L7.99996 3.53329L5.16663 6.33329C4.78885 6.68885 4.49996 7.10274 4.29996 7.57496C4.09996 8.04718 3.99996 8.5444 3.99996 9.06663C3.99996 10.1666 4.38885 11.0972 5.16663 11.8583C5.9444 12.6194 6.88885 13 7.99996 13Z" fill="#1C1B1F"/>
</g>
</g>
</svg>
