<svg width="24" height="25" viewBox="0 0 24 25" fill="none" xmlns="http://www.w3.org/2000/svg">
<mask id="mask0_1_448" style="mask-type:alpha" maskUnits="userSpaceOnUse" x="0" y="0" width="24" height="25">
<rect y="0.5" width="24" height="24" fill="#D9D9D9"/>
</mask>
<g mask="url(#mask0_1_448)">
<path d="M11 14.5H13V11.5H16V9.5H13V6.5H11V9.5H8V11.5H11V14.5ZM12 19.85C14.0333 17.9833 15.5417 16.2875 16.525 14.7625C17.5083 13.2375 18 11.8833 18 10.7C18 8.88333 17.4208 7.39583 16.2625 6.2375C15.1042 5.07917 13.6833 4.5 12 4.5C10.3167 4.5 8.89583 5.07917 7.7375 6.2375C6.57917 7.39583 6 8.88333 6 10.7C6 11.8833 6.49167 13.2375 7.475 14.7625C8.45833 16.2875 9.96667 17.9833 12 19.85ZM12 22.5C9.31667 20.2167 7.3125 18.0958 5.9875 16.1375C4.6625 14.1792 4 12.3667 4 10.7C4 8.2 4.80417 6.20833 6.4125 4.725C8.02083 3.24167 9.88333 2.5 12 2.5C14.1167 2.5 15.9792 3.24167 17.5875 4.725C19.1958 6.20833 20 8.2 20 10.7C20 12.3667 19.3375 14.1792 18.0125 16.1375C16.6875 18.0958 14.6833 20.2167 12 22.5Z" fill="#1C1B1F"/>
</g>
</svg>
