<svg width="79" height="16" viewBox="0 0 79 16" fill="none" xmlns="http://www.w3.org/2000/svg">
<rect width="79" height="16" fill="black" fill-opacity="0.2"/>
<g opacity="0.5">
<mask id="mask0_1_451" style="mask-type:alpha" maskUnits="userSpaceOnUse" x="5" y="0" width="16" height="16">
<rect x="5" width="16" height="16" fill="#D9D9D9"/>
</mask>
<g mask="url(#mask0_1_451)">
<path d="M12.0333 12.1333L15.4833 8.00001H12.8166L13.3 4.21668L10.2166 8.66668H12.5333L12.0333 12.1333ZM10.3333 14.6667L11 10H7.66663L13.6666 1.33334H15L14.3333 6.66668H18.3333L11.6666 14.6667H10.3333Z" fill="#1C1B1F"/>
</g>
</g>
<path d="M31.77 11.5L31.06 9.72H27.62L26.91 11.5H26.24L28.96 4.7H29.75L32.48 11.5H31.77ZM29.16 5.89L27.84 9.17H30.84L29.53 5.89L29.34 5.37L29.16 5.89ZM35.2325 11.61C33.8625 11.61 33.0425 10.58 33.0425 8.86C33.0425 7.07 33.8825 6.1 35.2325 6.1C35.9425 6.1 36.4925 6.42 36.8425 7.03V4.3H37.4925V11.5H36.8425V10.65C36.4925 11.26 35.9425 11.61 35.2325 11.61ZM35.2725 11.05C36.2925 11.05 36.8425 10.27 36.8425 8.86C36.8425 7.47 36.2725 6.66 35.2725 6.66C34.2625 6.66 33.7025 7.44 33.7025 8.86C33.7025 10.25 34.2825 11.05 35.2725 11.05ZM42.4656 9.37V6.21H43.1156V11.5H42.4656V10.6C42.1156 11.26 41.5056 11.61 40.7656 11.61C39.6656 11.61 39.0356 10.95 39.0356 9.75V6.21H39.6856V9.62C39.6856 10.47 40.0656 11.05 40.9456 11.05C41.9056 11.05 42.4656 10.17 42.4656 9.37ZM44.6509 11.5V4.3H45.3009V11.5H44.6509ZM46.9384 10.05V6.73H46.1384V6.21H46.9384V4.99H47.5884V6.21H48.7684V6.73H47.5884V10.05C47.5884 10.75 47.7884 11.06 48.5984 11.06H48.7584V11.53C48.6784 11.56 48.4984 11.58 48.3184 11.58C47.3584 11.58 46.9384 11.11 46.9384 10.05ZM51.7505 11.5V6.21H52.4005V7.18C52.7505 6.46 53.3405 6.1 54.0305 6.1C54.2305 6.1 54.4105 6.14 54.5105 6.21V6.8C54.3705 6.75 54.1805 6.72 53.9905 6.72C52.9105 6.72 52.4005 7.52 52.4005 8.46V11.5H51.7505ZM55.4028 5.44V4.3H56.0528V5.44H55.4028ZM55.4028 11.5V6.21H56.0528V11.5H55.4028ZM59.4903 11.61C58.1203 11.61 57.3003 10.58 57.3003 8.86C57.3003 7.07 58.1403 6.1 59.4903 6.1C60.2003 6.1 60.7503 6.42 61.1003 7.03V4.3H61.7503V11.5H61.1003V10.65C60.7503 11.26 60.2003 11.61 59.4903 11.61ZM59.5303 11.05C60.5503 11.05 61.1003 10.27 61.1003 8.86C61.1003 7.47 60.5303 6.66 59.5303 6.66C58.5203 6.66 57.9603 7.44 57.9603 8.86C57.9603 10.25 58.5403 11.05 59.5303 11.05ZM67.7034 9.78C67.4134 11.02 66.5534 11.61 65.3934 11.61C63.8934 11.61 63.0034 10.58 63.0034 8.86C63.0034 7.07 63.9034 6.1 65.3434 6.1C66.8034 6.1 67.6734 7.11 67.6734 8.78V8.96H63.6634C63.6934 10.29 64.3234 11.05 65.3934 11.05C66.2234 11.05 66.8234 10.62 67.0334 9.78H67.7034ZM65.3434 6.66C64.3634 6.66 63.7834 7.29 63.6834 8.46H67.0034C66.9034 7.32 66.3134 6.66 65.3434 6.66ZM69.3673 7.55C69.3673 9.2 72.8573 7.82 72.8573 10.02C72.8573 11.01 72.0073 11.61 70.8273 11.61C69.5973 11.61 68.7573 11.01 68.5573 9.78H69.2073C69.3373 10.63 69.9373 11.09 70.8473 11.09C71.7373 11.09 72.2073 10.67 72.2073 10.07C72.2073 8.42 68.7473 9.78 68.7473 7.6C68.7473 6.8 69.3473 6.1 70.5973 6.1C71.6973 6.1 72.5073 6.64 72.6673 7.93H72.0173C71.8873 7 71.3673 6.63 70.5573 6.63C69.7973 6.63 69.3673 7.02 69.3673 7.55Z" fill="black" fill-opacity="0.5"/>
</svg>
